<mxfile>
    <diagram id="Sn4uOGi4ZRI3hud-XaYP" name="Navigation">
        <mxGraphModel dx="1378" dy="281" grid="1" gridSize="10" guides="1" tooltips="1" connect="1" arrows="1" fold="1" page="1" pageScale="1" pageWidth="827" pageHeight="1169" math="0" shadow="0">
            <root>
                <mxCell id="vNp1FNLxV0zoz8VKMOYj-0"/>
                <mxCell id="vNp1FNLxV0zoz8VKMOYj-1" parent="vNp1FNLxV0zoz8VKMOYj-0"/>
                <mxCell id="0l4HuZ8tDX09V1X2BfsT-18" value="" style="whiteSpace=wrap;html=1;aspect=fixed;fontSize=19;fillColor=#2a2a2a;align=left;" parent="vNp1FNLxV0zoz8VKMOYj-1" vertex="1">
                    <mxGeometry x="-600" y="720" width="550" height="550" as="geometry"/>
                </mxCell>
                <mxCell id="vNp1FNLxV0zoz8VKMOYj-6" value="" style="strokeWidth=1;shadow=0;dashed=0;align=center;html=1;shape=mxgraph.mockup.containers.browserWindow;rSize=0;strokeColor=#666666;strokeColor2=#008cff;strokeColor3=#c4c4c4;mainText=,;recursiveResize=0;" parent="vNp1FNLxV0zoz8VKMOYj-1" vertex="1">
                    <mxGeometry x="10" y="20" width="790" height="550" as="geometry"/>
                </mxCell>
                <mxCell id="vNp1FNLxV0zoz8VKMOYj-7" value="Accueil" style="strokeWidth=1;shadow=0;dashed=0;align=center;html=1;shape=mxgraph.mockup.containers.anchor;fontSize=17;fontColor=#666666;align=left;" parent="vNp1FNLxV0zoz8VKMOYj-6" vertex="1">
                    <mxGeometry x="60" y="12" width="110" height="26" as="geometry"/>
                </mxCell>
                <mxCell id="vNp1FNLxV0zoz8VKMOYj-8" value="https://www.fisheye.fr/accueil.html" style="strokeWidth=1;shadow=0;dashed=0;align=center;html=1;shape=mxgraph.mockup.containers.anchor;rSize=0;fontSize=17;fontColor=#666666;align=left;" parent="vNp1FNLxV0zoz8VKMOYj-6" vertex="1">
                    <mxGeometry x="130" y="60" width="250" height="26" as="geometry"/>
                </mxCell>
                <mxCell id="vNp1FNLxV0zoz8VKMOYj-12" value="tag1" style="strokeColor=inherit;fillColor=inherit;gradientColor=inherit;strokeWidth=1;shadow=0;dashed=0;align=center;html=1;shape=mxgraph.mockup.forms.rrect;rSize=0;fontSize=17;fontColor=#666666;" parent="vNp1FNLxV0zoz8VKMOYj-6" vertex="1">
                    <mxGeometry x="120" y="140" width="83" height="30" as="geometry"/>
                </mxCell>
                <mxCell id="vNp1FNLxV0zoz8VKMOYj-13" value="tag2" style="strokeColor=inherit;fillColor=inherit;gradientColor=inherit;strokeWidth=1;shadow=0;dashed=0;align=center;html=1;shape=mxgraph.mockup.forms.rrect;rSize=0;fontSize=17;fontColor=#666666;" parent="vNp1FNLxV0zoz8VKMOYj-6" vertex="1">
                    <mxGeometry x="203" y="140" width="83" height="30" as="geometry"/>
                </mxCell>
                <mxCell id="vNp1FNLxV0zoz8VKMOYj-14" value="tag3" style="strokeColor=inherit;fillColor=inherit;gradientColor=inherit;strokeWidth=1;shadow=0;dashed=0;align=center;html=1;shape=mxgraph.mockup.forms.rrect;rSize=0;fontSize=17;fontColor=#666666;" parent="vNp1FNLxV0zoz8VKMOYj-6" vertex="1">
                    <mxGeometry x="286" y="140" width="83" height="30" as="geometry"/>
                </mxCell>
                <mxCell id="vNp1FNLxV0zoz8VKMOYj-15" value="tag4" style="strokeColor=inherit;fillColor=inherit;gradientColor=inherit;strokeWidth=1;shadow=0;dashed=0;align=center;html=1;shape=mxgraph.mockup.forms.rrect;rSize=0;fontSize=17;fontColor=#666666;" parent="vNp1FNLxV0zoz8VKMOYj-6" vertex="1">
                    <mxGeometry x="369" y="140" width="83" height="30" as="geometry"/>
                </mxCell>
                <mxCell id="vNp1FNLxV0zoz8VKMOYj-16" value="tag5" style="strokeColor=inherit;fillColor=inherit;gradientColor=inherit;strokeWidth=1;shadow=0;dashed=0;align=center;html=1;shape=mxgraph.mockup.forms.rrect;rSize=0;fontSize=17;fontColor=#666666;" parent="vNp1FNLxV0zoz8VKMOYj-6" vertex="1">
                    <mxGeometry x="452" y="140" width="83" height="30" as="geometry"/>
                </mxCell>
                <mxCell id="vNp1FNLxV0zoz8VKMOYj-18" value="&lt;font style=&quot;font-size: 19px&quot;&gt;FishEye&lt;/font&gt;" style="text;html=1;strokeColor=none;fillColor=none;align=center;verticalAlign=middle;whiteSpace=wrap;rounded=0;" parent="vNp1FNLxV0zoz8VKMOYj-6" vertex="1">
                    <mxGeometry x="30" y="135" width="70" height="40" as="geometry"/>
                </mxCell>
                <mxCell id="vNp1FNLxV0zoz8VKMOYj-34" value="Nos photographes" style="text;strokeColor=none;fillColor=none;html=1;fontSize=24;fontStyle=1;verticalAlign=middle;align=center;" parent="vNp1FNLxV0zoz8VKMOYj-6" vertex="1">
                    <mxGeometry x="620" y="135" width="100" height="40" as="geometry"/>
                </mxCell>
                <mxCell id="0l4HuZ8tDX09V1X2BfsT-0" value="" style="rounded=0;whiteSpace=wrap;html=1;shadow=0;glass=0;labelBackgroundColor=none;fontSize=19;strokeWidth=2;fillColor=#2A2A2A;align=center;strokeColor=#666666;" parent="vNp1FNLxV0zoz8VKMOYj-1" vertex="1">
                    <mxGeometry x="60" y="220" width="160" height="260" as="geometry"/>
                </mxCell>
                <mxCell id="vNp1FNLxV0zoz8VKMOYj-100" value="" style="whiteSpace=wrap;html=1;aspect=fixed;fontSize=19;fillColor=#2a2a2a;align=left;" parent="vNp1FNLxV0zoz8VKMOYj-1" vertex="1">
                    <mxGeometry x="139" y="1330" width="550" height="550" as="geometry"/>
                </mxCell>
                <mxCell id="0l4HuZ8tDX09V1X2BfsT-65" style="edgeStyle=orthogonalEdgeStyle;rounded=0;orthogonalLoop=1;jettySize=auto;html=1;exitX=0.5;exitY=1;exitDx=0;exitDy=0;fontSize=19;startArrow=none;startFill=0;endArrow=classic;endFill=1;strokeWidth=3;fillColor=#d5e8d4;strokeColor=#82b366;" parent="vNp1FNLxV0zoz8VKMOYj-1" source="vNp1FNLxV0zoz8VKMOYj-32" target="0l4HuZ8tDX09V1X2BfsT-62" edge="1">
                    <mxGeometry relative="1" as="geometry"/>
                </mxCell>
                <mxCell id="vNp1FNLxV0zoz8VKMOYj-32" value="&lt;h1&gt;Photograph1&lt;/h1&gt;&lt;div style=&quot;text-align: center&quot;&gt;city&lt;/div&gt;&lt;div style=&quot;text-align: center&quot;&gt;description&lt;/div&gt;&lt;div style=&quot;text-align: center&quot;&gt;price&lt;/div&gt;&lt;div style=&quot;text-align: center&quot;&gt;&lt;br&gt;&lt;/div&gt;&lt;div style=&quot;text-align: center&quot;&gt;#tags&lt;/div&gt;" style="text;html=1;strokeColor=none;fillColor=none;spacing=5;spacingTop=-20;whiteSpace=wrap;overflow=hidden;rounded=0;align=left;" parent="vNp1FNLxV0zoz8VKMOYj-1" vertex="1">
                    <mxGeometry x="60" y="350" width="160" height="120" as="geometry"/>
                </mxCell>
                <mxCell id="vNp1FNLxV0zoz8VKMOYj-35" value="" style="strokeWidth=1;shadow=0;dashed=0;align=center;html=1;shape=mxgraph.mockup.containers.browserWindow;rSize=0;strokeColor=#666666;strokeColor2=#008cff;strokeColor3=#c4c4c4;mainText=,;recursiveResize=0;" parent="vNp1FNLxV0zoz8VKMOYj-1" vertex="1">
                    <mxGeometry x="20" y="600" width="790" height="690" as="geometry"/>
                </mxCell>
                <mxCell id="vNp1FNLxV0zoz8VKMOYj-36" value="Photograph2" style="strokeWidth=1;shadow=0;dashed=0;align=center;html=1;shape=mxgraph.mockup.containers.anchor;fontSize=17;fontColor=#666666;align=left;" parent="vNp1FNLxV0zoz8VKMOYj-35" vertex="1">
                    <mxGeometry x="60" y="12" width="110" height="26" as="geometry"/>
                </mxCell>
                <mxCell id="vNp1FNLxV0zoz8VKMOYj-37" value="https://www.fisheye.fr/photograph2.html" style="strokeWidth=1;shadow=0;dashed=0;align=center;html=1;shape=mxgraph.mockup.containers.anchor;rSize=0;fontSize=17;fontColor=#666666;align=left;" parent="vNp1FNLxV0zoz8VKMOYj-35" vertex="1">
                    <mxGeometry x="129" y="60" width="250" height="26" as="geometry"/>
                </mxCell>
                <mxCell id="vNp1FNLxV0zoz8VKMOYj-43" value="&lt;font style=&quot;font-size: 19px&quot;&gt;FishEye&lt;/font&gt;" style="text;html=1;strokeColor=none;fillColor=none;align=center;verticalAlign=middle;whiteSpace=wrap;rounded=0;" parent="vNp1FNLxV0zoz8VKMOYj-35" vertex="1">
                    <mxGeometry x="30" y="135" width="70" height="40" as="geometry"/>
                </mxCell>
                <mxCell id="vNp1FNLxV0zoz8VKMOYj-61" value="Contact" style="strokeWidth=1;shadow=0;dashed=0;align=center;html=1;shape=mxgraph.mockup.buttons.button;strokeColor=#666666;fontColor=#ffffff;mainText=;buttonStyle=round;fontSize=17;fontStyle=1;fillColor=#008cff;whiteSpace=wrap;" parent="vNp1FNLxV0zoz8VKMOYj-35" vertex="1">
                    <mxGeometry x="240" y="190" width="120" height="40" as="geometry"/>
                </mxCell>
                <mxCell id="vNp1FNLxV0zoz8VKMOYj-59" value="&lt;h1&gt;Photograph2&lt;/h1&gt;&lt;div&gt;city&lt;/div&gt;&lt;div&gt;description&lt;/div&gt;&lt;div&gt;price&lt;/div&gt;&lt;div&gt;&lt;br&gt;&lt;/div&gt;&lt;div&gt;#tags&lt;/div&gt;" style="text;html=1;strokeColor=none;fillColor=none;spacing=5;spacingTop=-20;whiteSpace=wrap;overflow=hidden;rounded=0;align=left;" parent="vNp1FNLxV0zoz8VKMOYj-35" vertex="1">
                    <mxGeometry x="30" y="190" width="160" height="120" as="geometry"/>
                </mxCell>
                <mxCell id="vNp1FNLxV0zoz8VKMOYj-62" value="" style="rounded=1;whiteSpace=wrap;html=1;strokeWidth=2;fillWeight=4;hachureGap=8;hachureAngle=45;fillColor=#1ba1e2;sketch=1;align=left;" parent="vNp1FNLxV0zoz8VKMOYj-35" vertex="1">
                    <mxGeometry x="40" y="420" width="140" height="120" as="geometry"/>
                </mxCell>
                <mxCell id="vNp1FNLxV0zoz8VKMOYj-66" value="" style="strokeWidth=1;shadow=0;dashed=0;align=center;html=1;shape=mxgraph.mockup.forms.rrect;rSize=0;strokeColor=#999999;fillColor=#ffffff;" parent="vNp1FNLxV0zoz8VKMOYj-35" vertex="1">
                    <mxGeometry x="70" y="340" width="150" height="80" as="geometry"/>
                </mxCell>
                <mxCell id="vNp1FNLxV0zoz8VKMOYj-68" value="Popularité" style="strokeWidth=1;shadow=0;dashed=0;align=center;html=1;shape=mxgraph.mockup.forms.anchor;fontSize=17;fontColor=#666666;align=left;spacingLeft=5;resizeWidth=1;" parent="vNp1FNLxV0zoz8VKMOYj-66" vertex="1">
                    <mxGeometry width="150" height="20" relative="1" as="geometry">
                        <mxPoint y="10" as="offset"/>
                    </mxGeometry>
                </mxCell>
                <mxCell id="vNp1FNLxV0zoz8VKMOYj-69" value="Date" style="strokeWidth=1;shadow=0;dashed=0;align=center;html=1;shape=mxgraph.mockup.forms.anchor;fontSize=17;fontColor=#666666;align=left;spacingLeft=5;resizeWidth=1;" parent="vNp1FNLxV0zoz8VKMOYj-66" vertex="1">
                    <mxGeometry width="150" height="20" relative="1" as="geometry">
                        <mxPoint y="30" as="offset"/>
                    </mxGeometry>
                </mxCell>
                <mxCell id="vNp1FNLxV0zoz8VKMOYj-70" value="Titre" style="strokeWidth=1;shadow=0;dashed=0;align=center;html=1;shape=mxgraph.mockup.forms.rrect;rSize=0;fontSize=17;fontColor=#666666;align=left;spacingLeft=5;fillColor=#ddeeff;strokeColor=none;resizeWidth=1;" parent="vNp1FNLxV0zoz8VKMOYj-66" vertex="1">
                    <mxGeometry width="150" height="20" relative="1" as="geometry">
                        <mxPoint y="50" as="offset"/>
                    </mxGeometry>
                </mxCell>
                <mxCell id="vNp1FNLxV0zoz8VKMOYj-73" value="picture title" style="text;strokeColor=none;fillColor=none;html=1;fontSize=19;fontStyle=1;verticalAlign=middle;align=left;" parent="vNp1FNLxV0zoz8VKMOYj-35" vertex="1">
                    <mxGeometry x="40" y="550" width="100" height="40" as="geometry"/>
                </mxCell>
                <mxCell id="vNp1FNLxV0zoz8VKMOYj-75" value="" style="rounded=1;whiteSpace=wrap;html=1;strokeWidth=2;fillWeight=4;hachureGap=8;hachureAngle=45;fillColor=#1ba1e2;sketch=1;align=left;" parent="vNp1FNLxV0zoz8VKMOYj-35" vertex="1">
                    <mxGeometry x="240" y="420" width="140" height="120" as="geometry"/>
                </mxCell>
                <mxCell id="vNp1FNLxV0zoz8VKMOYj-76" value="picture title" style="text;strokeColor=none;fillColor=none;html=1;fontSize=19;fontStyle=1;verticalAlign=middle;align=left;" parent="vNp1FNLxV0zoz8VKMOYj-35" vertex="1">
                    <mxGeometry x="240" y="550" width="100" height="40" as="geometry"/>
                </mxCell>
                <mxCell id="vNp1FNLxV0zoz8VKMOYj-77" value="like" style="text;html=1;strokeColor=none;fillColor=none;align=center;verticalAlign=middle;whiteSpace=wrap;rounded=0;" parent="vNp1FNLxV0zoz8VKMOYj-35" vertex="1">
                    <mxGeometry x="350" y="560" width="40" height="20" as="geometry"/>
                </mxCell>
                <mxCell id="vNp1FNLxV0zoz8VKMOYj-78" value="" style="rounded=1;whiteSpace=wrap;html=1;strokeWidth=2;fillWeight=4;hachureGap=8;hachureAngle=45;fillColor=#1ba1e2;sketch=1;align=left;" parent="vNp1FNLxV0zoz8VKMOYj-35" vertex="1">
                    <mxGeometry x="450" y="420" width="140" height="120" as="geometry"/>
                </mxCell>
                <mxCell id="vNp1FNLxV0zoz8VKMOYj-79" value="picture title" style="text;strokeColor=none;fillColor=none;html=1;fontSize=19;fontStyle=1;verticalAlign=middle;align=left;" parent="vNp1FNLxV0zoz8VKMOYj-35" vertex="1">
                    <mxGeometry x="450" y="550" width="100" height="40" as="geometry"/>
                </mxCell>
                <mxCell id="vNp1FNLxV0zoz8VKMOYj-80" value="like" style="text;html=1;strokeColor=none;fillColor=none;align=center;verticalAlign=middle;whiteSpace=wrap;rounded=0;" parent="vNp1FNLxV0zoz8VKMOYj-35" vertex="1">
                    <mxGeometry x="560" y="560" width="40" height="20" as="geometry"/>
                </mxCell>
                <mxCell id="vNp1FNLxV0zoz8VKMOYj-104" value="" style="verticalLabelPosition=bottom;shadow=0;dashed=0;align=center;html=1;verticalAlign=top;strokeWidth=1;shape=mxgraph.mockup.containers.userFemale;strokeColor=#666666;strokeColor2=#008cff;fillColor=#2a2a2a;" parent="vNp1FNLxV0zoz8VKMOYj-35" vertex="1">
                    <mxGeometry x="620" y="160" width="100" height="100" as="geometry"/>
                </mxCell>
                <mxCell id="vNp1FNLxV0zoz8VKMOYj-108" value="Price" style="text;html=1;align=center;verticalAlign=middle;whiteSpace=wrap;rounded=0;fontSize=19;perimeterSpacing=0;strokeWidth=2;strokeColor=#001DBC;noLabel=0;absoluteArcSize=0;fillColor=#0050ef;fontColor=#ffffff;" parent="vNp1FNLxV0zoz8VKMOYj-35" vertex="1">
                    <mxGeometry x="600" y="650" width="150" height="40" as="geometry"/>
                </mxCell>
                <mxCell id="vNp1FNLxV0zoz8VKMOYj-64" value="Trier" style="text;html=1;strokeColor=none;fillColor=none;align=center;verticalAlign=middle;whiteSpace=wrap;rounded=0;" parent="vNp1FNLxV0zoz8VKMOYj-1" vertex="1">
                    <mxGeometry x="50" y="940" width="40" height="20" as="geometry"/>
                </mxCell>
                <mxCell id="vNp1FNLxV0zoz8VKMOYj-74" value="like" style="text;html=1;strokeColor=none;fillColor=none;align=center;verticalAlign=middle;whiteSpace=wrap;rounded=0;" parent="vNp1FNLxV0zoz8VKMOYj-1" vertex="1">
                    <mxGeometry x="170" y="1160" width="40" height="20" as="geometry"/>
                </mxCell>
                <mxCell id="vNp1FNLxV0zoz8VKMOYj-99" value="" style="rounded=1;whiteSpace=wrap;html=1;strokeWidth=2;fillWeight=4;hachureGap=8;hachureAngle=45;fillColor=#1ba1e2;sketch=1;align=left;" parent="vNp1FNLxV0zoz8VKMOYj-1" vertex="1">
                    <mxGeometry x="199" y="1364" width="430" height="390" as="geometry"/>
                </mxCell>
                <mxCell id="vNp1FNLxV0zoz8VKMOYj-101" value="picture title" style="text;strokeColor=none;fillColor=none;html=1;fontSize=19;fontStyle=1;verticalAlign=middle;align=left;" parent="vNp1FNLxV0zoz8VKMOYj-1" vertex="1">
                    <mxGeometry x="180" y="1770" width="100" height="40" as="geometry"/>
                </mxCell>
                <object label="" id="vNp1FNLxV0zoz8VKMOYj-102">
                    <mxCell style="edgeStyle=orthogonalEdgeStyle;rounded=0;orthogonalLoop=1;jettySize=auto;html=1;exitX=0.648;exitY=-0.078;exitDx=0;exitDy=0;fontSize=19;exitPerimeter=0;metaEdit=0;strokeWidth=3;fillColor=#ffe6cc;strokeColor=#d79b00;" parent="vNp1FNLxV0zoz8VKMOYj-1" source="vNp1FNLxV0zoz8VKMOYj-76" target="vNp1FNLxV0zoz8VKMOYj-100" edge="1">
                        <mxGeometry relative="1" as="geometry">
                            <Array as="points">
                                <mxPoint x="325" y="1290"/>
                                <mxPoint x="325" y="1290"/>
                            </Array>
                        </mxGeometry>
                    </mxCell>
                </object>
                <mxCell id="vNp1FNLxV0zoz8VKMOYj-103" style="edgeStyle=orthogonalEdgeStyle;rounded=0;orthogonalLoop=1;jettySize=auto;html=1;exitX=1;exitY=0;exitDx=0;exitDy=0;fontSize=19;strokeWidth=3;fillColor=#ffe6cc;strokeColor=#d79b00;" parent="vNp1FNLxV0zoz8VKMOYj-1" source="0l4HuZ8tDX09V1X2BfsT-4" target="vNp1FNLxV0zoz8VKMOYj-35" edge="1">
                    <mxGeometry relative="1" as="geometry">
                        <mxPoint x="362.5999999999999" y="291.29999999999995" as="sourcePoint"/>
                        <Array as="points">
                            <mxPoint x="430" y="350"/>
                        </Array>
                    </mxGeometry>
                </mxCell>
                <mxCell id="0l4HuZ8tDX09V1X2BfsT-22" style="edgeStyle=orthogonalEdgeStyle;rounded=0;orthogonalLoop=1;jettySize=auto;html=1;fontSize=19;startArrow=none;startFill=0;endArrow=classic;endFill=1;fillColor=#ffe6cc;strokeColor=#d79b00;strokeWidth=3;exitX=0.5;exitY=0;exitDx=0;exitDy=0;" parent="vNp1FNLxV0zoz8VKMOYj-1" source="0l4HuZ8tDX09V1X2BfsT-73" edge="1">
                    <mxGeometry relative="1" as="geometry">
                        <mxPoint x="540" y="1290.0000000000002" as="targetPoint"/>
                        <mxPoint x="850" y="1330" as="sourcePoint"/>
                        <Array as="points">
                            <mxPoint x="890" y="1330"/>
                            <mxPoint x="540" y="1330"/>
                        </Array>
                    </mxGeometry>
                </mxCell>
                <mxCell id="0l4HuZ8tDX09V1X2BfsT-74" style="edgeStyle=orthogonalEdgeStyle;rounded=0;orthogonalLoop=1;jettySize=auto;html=1;fontSize=19;startArrow=none;startFill=0;endArrow=classic;endFill=1;strokeWidth=3;fillColor=#d5e8d4;strokeColor=#82b366;entryX=0;entryY=0.5;entryDx=0;entryDy=0;" parent="vNp1FNLxV0zoz8VKMOYj-1" target="0l4HuZ8tDX09V1X2BfsT-73" edge="1">
                    <mxGeometry relative="1" as="geometry">
                        <mxPoint x="680" y="1360" as="sourcePoint"/>
                        <mxPoint x="860" y="1420" as="targetPoint"/>
                        <Array as="points">
                            <mxPoint x="750" y="1360"/>
                            <mxPoint x="750" y="1380"/>
                        </Array>
                    </mxGeometry>
                </mxCell>
                <mxCell id="vNp1FNLxV0zoz8VKMOYj-105" value="" style="shape=cross;whiteSpace=wrap;html=1;fontSize=19;fillColor=#2a2a2a;align=left;size=0;rotation=45;" parent="vNp1FNLxV0zoz8VKMOYj-1" vertex="1">
                    <mxGeometry x="640" y="1340" width="40" height="40" as="geometry"/>
                </mxCell>
                <mxCell id="0l4HuZ8tDX09V1X2BfsT-67" style="edgeStyle=orthogonalEdgeStyle;rounded=0;orthogonalLoop=1;jettySize=auto;html=1;exitX=1;exitY=0.5;exitDx=0;exitDy=0;exitPerimeter=0;entryX=0.5;entryY=1;entryDx=0;entryDy=0;fontSize=19;startArrow=none;startFill=0;endArrow=classic;endFill=1;strokeWidth=3;fillColor=#d5e8d4;strokeColor=#82b366;" parent="vNp1FNLxV0zoz8VKMOYj-1" source="vNp1FNLxV0zoz8VKMOYj-106" target="0l4HuZ8tDX09V1X2BfsT-66" edge="1">
                    <mxGeometry relative="1" as="geometry"/>
                </mxCell>
                <mxCell id="vNp1FNLxV0zoz8VKMOYj-106" value="" style="shape=singleArrow;direction=west;whiteSpace=wrap;html=1;fontSize=19;fillColor=#2a2a2a;align=left;arrowWidth=0.47407463921441223;arrowSize=0.27460414341517936;" parent="vNp1FNLxV0zoz8VKMOYj-1" vertex="1">
                    <mxGeometry x="155" y="1560" width="70" height="40" as="geometry"/>
                </mxCell>
                <mxCell id="0l4HuZ8tDX09V1X2BfsT-68" style="edgeStyle=orthogonalEdgeStyle;rounded=0;orthogonalLoop=1;jettySize=auto;html=1;exitX=0;exitY=0;exitDx=25.38885498046872;exitDy=10.518507215711756;exitPerimeter=0;entryX=1;entryY=0.5;entryDx=0;entryDy=0;fontSize=19;startArrow=none;startFill=0;endArrow=classic;endFill=1;strokeWidth=3;fillColor=#d5e8d4;strokeColor=#82b366;" parent="vNp1FNLxV0zoz8VKMOYj-1" source="vNp1FNLxV0zoz8VKMOYj-107" target="0l4HuZ8tDX09V1X2BfsT-66" edge="1">
                    <mxGeometry relative="1" as="geometry">
                        <Array as="points">
                            <mxPoint x="615" y="1530"/>
                        </Array>
                    </mxGeometry>
                </mxCell>
                <mxCell id="vNp1FNLxV0zoz8VKMOYj-107" value="" style="shape=singleArrow;direction=west;whiteSpace=wrap;html=1;fontSize=19;fillColor=#2a2a2a;align=left;arrowWidth=0.47407463921441223;arrowSize=0.27460414341517936;rotation=-180;" parent="vNp1FNLxV0zoz8VKMOYj-1" vertex="1">
                    <mxGeometry x="590" y="1560" width="70" height="40" as="geometry"/>
                </mxCell>
                <mxCell id="0l4HuZ8tDX09V1X2BfsT-1" value="" style="verticalLabelPosition=bottom;shadow=0;dashed=0;align=center;html=1;verticalAlign=top;strokeWidth=1;shape=mxgraph.mockup.containers.userMale;strokeColor=#666666;strokeColor2=#008cff;fillColor=#2a2a2a;" parent="vNp1FNLxV0zoz8VKMOYj-1" vertex="1">
                    <mxGeometry x="90" y="230" width="100" height="100" as="geometry"/>
                </mxCell>
                <mxCell id="0l4HuZ8tDX09V1X2BfsT-2" value="" style="rounded=0;whiteSpace=wrap;html=1;shadow=0;glass=0;labelBackgroundColor=none;fontSize=19;strokeWidth=2;fillColor=#2A2A2A;align=center;strokeColor=#666666;" parent="vNp1FNLxV0zoz8VKMOYj-1" vertex="1">
                    <mxGeometry x="227.5" y="220" width="165" height="260" as="geometry"/>
                </mxCell>
                <mxCell id="0l4HuZ8tDX09V1X2BfsT-3" value="" style="verticalLabelPosition=bottom;shadow=0;dashed=0;align=center;html=1;verticalAlign=top;strokeWidth=1;shape=mxgraph.mockup.containers.userFemale;strokeColor=#666666;strokeColor2=#008cff;fillColor=#2a2a2a;" parent="vNp1FNLxV0zoz8VKMOYj-1" vertex="1">
                    <mxGeometry x="260" y="230" width="100" height="100" as="geometry"/>
                </mxCell>
                <mxCell id="0l4HuZ8tDX09V1X2BfsT-4" value="&lt;h1&gt;Photograph2&lt;/h1&gt;&lt;div style=&quot;text-align: center&quot;&gt;city&lt;/div&gt;&lt;div style=&quot;text-align: center&quot;&gt;description&lt;/div&gt;&lt;div style=&quot;text-align: center&quot;&gt;price&lt;/div&gt;&lt;div style=&quot;text-align: center&quot;&gt;&lt;br&gt;&lt;/div&gt;&lt;div style=&quot;text-align: center&quot;&gt;#tags&lt;/div&gt;" style="text;html=1;strokeColor=none;fillColor=none;spacing=5;spacingTop=-20;whiteSpace=wrap;overflow=hidden;rounded=0;align=left;" parent="vNp1FNLxV0zoz8VKMOYj-1" vertex="1">
                    <mxGeometry x="230" y="350" width="160" height="120" as="geometry"/>
                </mxCell>
                <mxCell id="0l4HuZ8tDX09V1X2BfsT-7" value="Name" style="strokeWidth=1;shadow=0;dashed=0;align=center;html=1;shape=mxgraph.mockup.forms.anchor;align=right;spacingRight=2;fontColor=#666666;rounded=1;glass=0;labelBackgroundColor=none;fontSize=19;fillColor=#2A2A2A;" parent="vNp1FNLxV0zoz8VKMOYj-1" vertex="1">
                    <mxGeometry x="-530" y="770" width="50" height="18" as="geometry"/>
                </mxCell>
                <mxCell id="0l4HuZ8tDX09V1X2BfsT-8" value="Eustache Gühtbreg" style="strokeWidth=1;shadow=0;dashed=0;align=center;html=1;shape=mxgraph.mockup.forms.rrect;fillColor=#ffffff;rSize=0;fontColor=#666666;align=left;spacingLeft=3;strokeColor=#999999;rounded=1;glass=0;labelBackgroundColor=none;fontSize=19;" parent="vNp1FNLxV0zoz8VKMOYj-1" vertex="1">
                    <mxGeometry x="-480" y="770" width="350" height="18" as="geometry"/>
                </mxCell>
                <mxCell id="0l4HuZ8tDX09V1X2BfsT-13" value="Email" style="strokeWidth=1;shadow=0;dashed=0;align=center;html=1;shape=mxgraph.mockup.forms.anchor;align=right;spacingRight=2;fontColor=#666666;rounded=1;glass=0;labelBackgroundColor=none;fontSize=19;fillColor=#2A2A2A;" parent="vNp1FNLxV0zoz8VKMOYj-1" vertex="1">
                    <mxGeometry x="-530" y="810" width="50" height="18" as="geometry"/>
                </mxCell>
                <mxCell id="0l4HuZ8tDX09V1X2BfsT-14" value="" style="strokeWidth=1;shadow=0;dashed=0;align=center;html=1;shape=mxgraph.mockup.forms.rrect;fillColor=#ffffff;rSize=0;fontColor=#666666;align=left;spacingLeft=3;strokeColor=#999999;rounded=1;glass=0;labelBackgroundColor=none;fontSize=19;" parent="vNp1FNLxV0zoz8VKMOYj-1" vertex="1">
                    <mxGeometry x="-480" y="810" width="350" height="18" as="geometry"/>
                </mxCell>
                <mxCell id="0l4HuZ8tDX09V1X2BfsT-17" value="Lorem ipsum dolor sit amet, consectetur adipisicing elit, sed do eiusmod tempor incididunt ut labore et dolore magna aliqua. Ut enim ad minim veniam, quis nostrud exercitation ullamco laboris nisi ut aliquip ex ea commodo consequat. Duis aute irure dolor in reprehenderit in voluptate velit esse cillum dolore eu fugiat nulla pariatur. Excepteur sint occaecat cupidatat non proident, sunt in culpa qui officia deserunt mollit anim id est laborum." style="strokeWidth=1;shadow=0;dashed=0;align=center;html=1;shape=mxgraph.mockup.forms.rrect;fillColor=#ffffff;rSize=0;fontColor=#666666;align=left;spacingLeft=3;strokeColor=#999999;verticalAlign=top;whiteSpace=wrap;rounded=1;glass=0;labelBackgroundColor=none;fontSize=19;" parent="vNp1FNLxV0zoz8VKMOYj-1" vertex="1">
                    <mxGeometry x="-530" y="850" width="400" height="245" as="geometry"/>
                </mxCell>
                <mxCell id="0l4HuZ8tDX09V1X2BfsT-20" style="edgeStyle=orthogonalEdgeStyle;rounded=0;orthogonalLoop=1;jettySize=auto;html=1;exitX=1;exitY=0.5;exitDx=0;exitDy=0;fontSize=19;entryX=0.509;entryY=-0.022;entryDx=0;entryDy=0;entryPerimeter=0;endArrow=none;endFill=0;startArrow=classic;startFill=1;fillColor=#ffe6cc;strokeColor=#d79b00;strokeWidth=3;" parent="vNp1FNLxV0zoz8VKMOYj-1" source="0l4HuZ8tDX09V1X2BfsT-18" target="vNp1FNLxV0zoz8VKMOYj-61" edge="1">
                    <mxGeometry relative="1" as="geometry">
                        <Array as="points">
                            <mxPoint y="995"/>
                            <mxPoint y="770"/>
                            <mxPoint x="321" y="770"/>
                        </Array>
                    </mxGeometry>
                </mxCell>
                <mxCell id="0l4HuZ8tDX09V1X2BfsT-21" style="edgeStyle=orthogonalEdgeStyle;rounded=0;orthogonalLoop=1;jettySize=auto;html=1;exitX=0.5;exitY=0;exitDx=0;exitDy=0;entryX=0.096;entryY=1.002;entryDx=0;entryDy=0;entryPerimeter=0;fontSize=19;startArrow=none;startFill=0;endArrow=classic;endFill=1;strokeWidth=3;fillColor=#ffe6cc;strokeColor=#d79b00;" parent="vNp1FNLxV0zoz8VKMOYj-1" source="vNp1FNLxV0zoz8VKMOYj-43" target="vNp1FNLxV0zoz8VKMOYj-6" edge="1">
                    <mxGeometry relative="1" as="geometry"/>
                </mxCell>
                <mxCell id="0l4HuZ8tDX09V1X2BfsT-77" style="edgeStyle=orthogonalEdgeStyle;rounded=0;orthogonalLoop=1;jettySize=auto;html=1;exitX=0;exitY=0;exitDx=20;exitDy=20;exitPerimeter=0;entryX=0.818;entryY=1;entryDx=0;entryDy=0;entryPerimeter=0;fontSize=19;startArrow=none;startFill=0;endArrow=classic;endFill=1;strokeWidth=3;fillColor=#d5e8d4;strokeColor=#82b366;" parent="vNp1FNLxV0zoz8VKMOYj-1" source="0l4HuZ8tDX09V1X2BfsT-23" target="0l4HuZ8tDX09V1X2BfsT-76" edge="1">
                    <mxGeometry relative="1" as="geometry"/>
                </mxCell>
                <mxCell id="0l4HuZ8tDX09V1X2BfsT-23" value="" style="shape=cross;whiteSpace=wrap;html=1;fontSize=19;fillColor=#2a2a2a;align=left;size=0;rotation=45;" parent="vNp1FNLxV0zoz8VKMOYj-1" vertex="1">
                    <mxGeometry x="-110" y="730" width="40" height="40" as="geometry"/>
                </mxCell>
                <mxCell id="0l4HuZ8tDX09V1X2BfsT-33" style="edgeStyle=orthogonalEdgeStyle;rounded=0;orthogonalLoop=1;jettySize=auto;html=1;fontSize=19;startArrow=none;startFill=0;endArrow=classic;endFill=1;strokeWidth=3;fillColor=#ffe6cc;strokeColor=#d79b00;exitX=1;exitY=0.5;exitDx=0;exitDy=0;" parent="vNp1FNLxV0zoz8VKMOYj-1" source="0l4HuZ8tDX09V1X2BfsT-70" edge="1">
                    <mxGeometry relative="1" as="geometry">
                        <mxPoint x="60" y="1290" as="targetPoint"/>
                        <Array as="points">
                            <mxPoint x="60" y="1360"/>
                        </Array>
                    </mxGeometry>
                </mxCell>
                <mxCell id="0l4HuZ8tDX09V1X2BfsT-71" style="edgeStyle=orthogonalEdgeStyle;rounded=0;orthogonalLoop=1;jettySize=auto;html=1;fontSize=19;startArrow=none;startFill=0;endArrow=classic;endFill=1;strokeWidth=3;fillColor=#d5e8d4;strokeColor=#82b366;" parent="vNp1FNLxV0zoz8VKMOYj-1" source="0l4HuZ8tDX09V1X2BfsT-24" target="0l4HuZ8tDX09V1X2BfsT-70" edge="1">
                    <mxGeometry relative="1" as="geometry"/>
                </mxCell>
                <mxCell id="0l4HuZ8tDX09V1X2BfsT-24" value="Submit" style="strokeWidth=1;shadow=0;dashed=0;align=center;html=1;shape=mxgraph.mockup.buttons.button;strokeColor=#666666;fontColor=#ffffff;mainText=;buttonStyle=round;fontSize=17;fontStyle=1;fillColor=#008cff;whiteSpace=wrap;rounded=1;glass=0;labelBackgroundColor=none;" parent="vNp1FNLxV0zoz8VKMOYj-1" vertex="1">
                    <mxGeometry x="-413" y="1130" width="150" height="50" as="geometry"/>
                </mxCell>
                <mxCell id="0l4HuZ8tDX09V1X2BfsT-80" style="edgeStyle=orthogonalEdgeStyle;rounded=0;orthogonalLoop=1;jettySize=auto;html=1;exitX=0.75;exitY=1;exitDx=0;exitDy=0;entryX=0.001;entryY=0.497;entryDx=0;entryDy=0;entryPerimeter=0;fontSize=19;startArrow=none;startFill=0;endArrow=classic;endFill=1;strokeWidth=3;fillColor=#ffe6cc;strokeColor=#d79b00;" parent="vNp1FNLxV0zoz8VKMOYj-1" source="0l4HuZ8tDX09V1X2BfsT-62" target="vNp1FNLxV0zoz8VKMOYj-6" edge="1">
                    <mxGeometry relative="1" as="geometry"/>
                </mxCell>
                <mxCell id="0l4HuZ8tDX09V1X2BfsT-62" value="sort photograph by tags" style="label;whiteSpace=wrap;html=1;image=img/clipart/Gear_128x128.png;rounded=1;shadow=0;glass=0;labelBackgroundColor=none;fontSize=19;strokeColor=#666666;strokeWidth=2;fillColor=#2A2A2A;align=center;" parent="vNp1FNLxV0zoz8VKMOYj-1" vertex="1">
                    <mxGeometry x="-310" y="120" width="220" height="60" as="geometry"/>
                </mxCell>
                <mxCell id="0l4HuZ8tDX09V1X2BfsT-63" style="edgeStyle=orthogonalEdgeStyle;rounded=0;orthogonalLoop=1;jettySize=auto;html=1;entryX=1;entryY=0.5;entryDx=0;entryDy=0;fontSize=19;startArrow=none;startFill=0;endArrow=classic;endFill=1;strokeWidth=3;fillColor=#d5e8d4;strokeColor=#82b366;" parent="vNp1FNLxV0zoz8VKMOYj-1" source="vNp1FNLxV0zoz8VKMOYj-12" target="0l4HuZ8tDX09V1X2BfsT-62" edge="1">
                    <mxGeometry relative="1" as="geometry">
                        <Array as="points">
                            <mxPoint x="172" y="150"/>
                        </Array>
                    </mxGeometry>
                </mxCell>
                <mxCell id="0l4HuZ8tDX09V1X2BfsT-72" style="edgeStyle=orthogonalEdgeStyle;rounded=0;orthogonalLoop=1;jettySize=auto;html=1;exitX=0.5;exitY=0;exitDx=0;exitDy=0;fontSize=19;startArrow=none;startFill=0;endArrow=classic;endFill=1;strokeWidth=3;fillColor=#ffe6cc;strokeColor=#d79b00;entryX=0;entryY=0.25;entryDx=0;entryDy=0;" parent="vNp1FNLxV0zoz8VKMOYj-1" source="0l4HuZ8tDX09V1X2BfsT-66" target="vNp1FNLxV0zoz8VKMOYj-100" edge="1">
                    <mxGeometry relative="1" as="geometry">
                        <mxPoint x="120" y="1468" as="targetPoint"/>
                        <Array as="points">
                            <mxPoint x="-80" y="1468"/>
                        </Array>
                    </mxGeometry>
                </mxCell>
                <mxCell id="0l4HuZ8tDX09V1X2BfsT-66" value="change photo/title" style="label;whiteSpace=wrap;html=1;image=img/clipart/Gear_128x128.png;rounded=1;shadow=0;glass=0;labelBackgroundColor=none;fontSize=19;strokeColor=#666666;strokeWidth=2;fillColor=#2A2A2A;align=center;" parent="vNp1FNLxV0zoz8VKMOYj-1" vertex="1">
                    <mxGeometry x="-190" y="1500" width="220" height="60" as="geometry"/>
                </mxCell>
                <mxCell id="0l4HuZ8tDX09V1X2BfsT-69" style="edgeStyle=orthogonalEdgeStyle;rounded=0;orthogonalLoop=1;jettySize=auto;html=1;exitX=0;exitY=1;exitDx=0;exitDy=0;entryX=0.5;entryY=1;entryDx=0;entryDy=0;fontSize=19;startArrow=none;startFill=0;endArrow=classic;endFill=1;strokeWidth=3;fillColor=#d5e8d4;strokeColor=#82b366;" parent="vNp1FNLxV0zoz8VKMOYj-1" source="vNp1FNLxV0zoz8VKMOYj-59" target="0l4HuZ8tDX09V1X2BfsT-62" edge="1">
                    <mxGeometry relative="1" as="geometry">
                        <Array as="points">
                            <mxPoint x="-310" y="910"/>
                            <mxPoint x="-310" y="240"/>
                            <mxPoint x="-200" y="240"/>
                        </Array>
                    </mxGeometry>
                </mxCell>
                <mxCell id="0l4HuZ8tDX09V1X2BfsT-70" value="submit form data" style="label;whiteSpace=wrap;html=1;image=img/clipart/Gear_128x128.png;rounded=1;shadow=0;glass=0;labelBackgroundColor=none;fontSize=19;strokeColor=#666666;strokeWidth=2;fillColor=#2A2A2A;align=center;" parent="vNp1FNLxV0zoz8VKMOYj-1" vertex="1">
                    <mxGeometry x="-448" y="1330" width="220" height="60" as="geometry"/>
                </mxCell>
                <mxCell id="0l4HuZ8tDX09V1X2BfsT-73" value="close lightbox" style="label;whiteSpace=wrap;html=1;image=img/clipart/Gear_128x128.png;rounded=1;shadow=0;glass=0;labelBackgroundColor=none;fontSize=19;strokeColor=#666666;strokeWidth=2;fillColor=#2A2A2A;align=center;" parent="vNp1FNLxV0zoz8VKMOYj-1" vertex="1">
                    <mxGeometry x="780" y="1350" width="220" height="60" as="geometry"/>
                </mxCell>
                <mxCell id="0l4HuZ8tDX09V1X2BfsT-79" style="edgeStyle=orthogonalEdgeStyle;rounded=0;orthogonalLoop=1;jettySize=auto;html=1;exitX=1;exitY=0.5;exitDx=0;exitDy=0;entryX=-0.003;entryY=0.06;entryDx=0;entryDy=0;entryPerimeter=0;fontSize=19;startArrow=none;startFill=0;endArrow=classic;endFill=1;strokeWidth=3;fillColor=#ffe6cc;strokeColor=#d79b00;" parent="vNp1FNLxV0zoz8VKMOYj-1" source="0l4HuZ8tDX09V1X2BfsT-76" target="vNp1FNLxV0zoz8VKMOYj-35" edge="1">
                    <mxGeometry relative="1" as="geometry">
                        <Array as="points">
                            <mxPoint x="-15" y="640"/>
                        </Array>
                    </mxGeometry>
                </mxCell>
                <mxCell id="0l4HuZ8tDX09V1X2BfsT-76" value="modal" style="label;whiteSpace=wrap;html=1;image=img/clipart/Gear_128x128.png;rounded=1;shadow=0;glass=0;labelBackgroundColor=none;fontSize=19;strokeColor=#666666;strokeWidth=2;fillColor=#2A2A2A;align=center;" parent="vNp1FNLxV0zoz8VKMOYj-1" vertex="1">
                    <mxGeometry x="-270" y="610" width="220" height="60" as="geometry"/>
                </mxCell>
                <mxCell id="0l4HuZ8tDX09V1X2BfsT-83" style="edgeStyle=orthogonalEdgeStyle;rounded=0;orthogonalLoop=1;jettySize=auto;html=1;exitX=0.5;exitY=1;exitDx=0;exitDy=0;entryX=1.003;entryY=0.749;entryDx=0;entryDy=0;entryPerimeter=0;fontSize=19;startArrow=none;startFill=0;endArrow=classic;endFill=1;strokeWidth=3;fillColor=#ffe6cc;strokeColor=#d79b00;" parent="vNp1FNLxV0zoz8VKMOYj-1" source="0l4HuZ8tDX09V1X2BfsT-81" target="vNp1FNLxV0zoz8VKMOYj-35" edge="1">
                    <mxGeometry relative="1" as="geometry">
                        <Array as="points">
                            <mxPoint x="960" y="1117"/>
                        </Array>
                    </mxGeometry>
                </mxCell>
                <mxCell id="0l4HuZ8tDX09V1X2BfsT-81" value="sort photo by...&lt;br&gt;" style="label;whiteSpace=wrap;html=1;image=img/clipart/Gear_128x128.png;rounded=1;shadow=0;glass=0;labelBackgroundColor=none;fontSize=19;strokeColor=#666666;strokeWidth=2;fillColor=#2A2A2A;align=center;" parent="vNp1FNLxV0zoz8VKMOYj-1" vertex="1">
                    <mxGeometry x="850" y="950" width="220" height="60" as="geometry"/>
                </mxCell>
                <mxCell id="0l4HuZ8tDX09V1X2BfsT-82" style="edgeStyle=orthogonalEdgeStyle;rounded=0;orthogonalLoop=1;jettySize=auto;html=1;entryX=0;entryY=0.5;entryDx=0;entryDy=0;fontSize=19;startArrow=none;startFill=0;endArrow=classic;endFill=1;strokeWidth=3;fillColor=#d5e8d4;strokeColor=#82b366;" parent="vNp1FNLxV0zoz8VKMOYj-1" source="vNp1FNLxV0zoz8VKMOYj-66" target="0l4HuZ8tDX09V1X2BfsT-81" edge="1">
                    <mxGeometry relative="1" as="geometry"/>
                </mxCell>
            </root>
        </mxGraphModel>
    </diagram>
    <diagram id="Fal6wbkkxZul2Zxjznla" name="Class diagram">
        <mxGraphModel dx="551" dy="281" grid="1" gridSize="10" guides="1" tooltips="1" connect="1" arrows="1" fold="1" page="1" pageScale="1" pageWidth="827" pageHeight="1169" math="0" shadow="0">
            <root>
                <mxCell id="0"/>
                <mxCell id="1" parent="0"/>
                <mxCell id="3" value="&amp;lt;&amp;lt;Entity&amp;gt;&amp;gt;&lt;br&gt;Ph&lt;b&gt;otograph&lt;/b&gt;" style="swimlane;fontStyle=0;align=center;verticalAlign=top;childLayout=stackLayout;horizontal=1;startSize=55;horizontalStack=0;resizeParent=1;resizeParentMax=0;resizeLast=0;collapsible=0;marginBottom=0;html=1;labelBackgroundColor=none;glass=0;rounded=1;shadow=0;fillColor=#2A2A2A;" parent="1" vertex="1">
                    <mxGeometry x="20" y="10" width="140" height="354" as="geometry"/>
                </mxCell>
                <mxCell id="4" value="properties" style="text;html=1;align=center;verticalAlign=middle;spacingLeft=4;spacingRight=4;overflow=hidden;rotatable=0;points=[[0,0.5],[1,0.5]];portConstraint=eastwest;labelBackgroundColor=none;" parent="3" vertex="1">
                    <mxGeometry y="55" width="140" height="20" as="geometry"/>
                </mxCell>
                <mxCell id="5" value="fullName" style="text;html=1;align=left;verticalAlign=middle;spacingLeft=4;spacingRight=4;overflow=hidden;rotatable=0;points=[[0,0.5],[1,0.5]];portConstraint=eastwest;labelBackgroundColor=none;" parent="3" vertex="1">
                    <mxGeometry y="75" width="140" height="20" as="geometry"/>
                </mxCell>
                <mxCell id="6" value="city" style="text;html=1;align=left;verticalAlign=middle;spacingLeft=4;spacingRight=4;overflow=hidden;rotatable=0;points=[[0,0.5],[1,0.5]];portConstraint=eastwest;labelBackgroundColor=none;" parent="3" vertex="1">
                    <mxGeometry y="95" width="140" height="20" as="geometry"/>
                </mxCell>
                <mxCell id="7" value="country" style="text;html=1;align=left;verticalAlign=middle;spacingLeft=4;spacingRight=4;overflow=hidden;rotatable=0;points=[[0,0.5],[1,0.5]];portConstraint=eastwest;labelBackgroundColor=none;" parent="3" vertex="1">
                    <mxGeometry y="115" width="140" height="20" as="geometry"/>
                </mxCell>
                <mxCell id="ksVcXcVUjheI1veKoCMT-19" value="slogan" style="text;html=1;align=left;verticalAlign=middle;spacingLeft=4;spacingRight=4;overflow=hidden;rotatable=0;points=[[0,0.5],[1,0.5]];portConstraint=eastwest;labelBackgroundColor=none;" parent="3" vertex="1">
                    <mxGeometry y="135" width="140" height="20" as="geometry"/>
                </mxCell>
                <mxCell id="ksVcXcVUjheI1veKoCMT-20" value="price" style="text;html=1;align=left;verticalAlign=middle;spacingLeft=4;spacingRight=4;overflow=hidden;rotatable=0;points=[[0,0.5],[1,0.5]];portConstraint=eastwest;labelBackgroundColor=none;" parent="3" vertex="1">
                    <mxGeometry y="155" width="140" height="20" as="geometry"/>
                </mxCell>
                <mxCell id="ksVcXcVUjheI1veKoCMT-21" value="tags" style="text;html=1;align=left;verticalAlign=middle;spacingLeft=4;spacingRight=4;overflow=hidden;rotatable=0;points=[[0,0.5],[1,0.5]];portConstraint=eastwest;labelBackgroundColor=none;" parent="3" vertex="1">
                    <mxGeometry y="175" width="140" height="20" as="geometry"/>
                </mxCell>
                <mxCell id="ksVcXcVUjheI1veKoCMT-22" value="avatar" style="text;html=1;align=left;verticalAlign=middle;spacingLeft=4;spacingRight=4;overflow=hidden;rotatable=0;points=[[0,0.5],[1,0.5]];portConstraint=eastwest;labelBackgroundColor=none;" parent="3" vertex="1">
                    <mxGeometry y="195" width="140" height="20" as="geometry"/>
                </mxCell>
                <mxCell id="ksVcXcVUjheI1veKoCMT-23" value="photos" style="text;html=1;align=left;verticalAlign=middle;spacingLeft=4;spacingRight=4;overflow=hidden;rotatable=0;points=[[0,0.5],[1,0.5]];portConstraint=eastwest;labelBackgroundColor=none;" parent="3" vertex="1">
                    <mxGeometry y="215" width="140" height="20" as="geometry"/>
                </mxCell>
                <mxCell id="8" value="" style="line;strokeWidth=1;align=left;verticalAlign=middle;spacingTop=-1;spacingLeft=3;spacingRight=3;rotatable=0;labelPosition=right;points=[];portConstraint=eastwest;labelBackgroundColor=none;" parent="3" vertex="1">
                    <mxGeometry y="235" width="140" height="8" as="geometry"/>
                </mxCell>
                <mxCell id="9" value="methods" style="text;html=1;align=center;verticalAlign=middle;spacingLeft=4;spacingRight=4;overflow=hidden;rotatable=0;points=[[0,0.5],[1,0.5]];portConstraint=eastwest;labelBackgroundColor=none;" parent="3" vertex="1">
                    <mxGeometry y="243" width="140" height="23" as="geometry"/>
                </mxCell>
                <mxCell id="10" value="getOnePhotograph()" style="text;html=1;align=left;verticalAlign=middle;spacingLeft=4;spacingRight=4;overflow=hidden;rotatable=0;points=[[0,0.5],[1,0.5]];portConstraint=eastwest;labelBackgroundColor=none;" parent="3" vertex="1">
                    <mxGeometry y="266" width="140" height="24" as="geometry"/>
                </mxCell>
                <mxCell id="ksVcXcVUjheI1veKoCMT-24" value="setPhotograph()" style="text;html=1;align=left;verticalAlign=middle;spacingLeft=4;spacingRight=4;overflow=hidden;rotatable=0;points=[[0,0.5],[1,0.5]];portConstraint=eastwest;labelBackgroundColor=none;" parent="3" vertex="1">
                    <mxGeometry y="290" width="140" height="20" as="geometry"/>
                </mxCell>
                <mxCell id="ksVcXcVUjheI1veKoCMT-27" value="sumLikes()" style="text;html=1;align=left;verticalAlign=middle;spacingLeft=4;spacingRight=4;overflow=hidden;rotatable=0;points=[[0,0.5],[1,0.5]];portConstraint=eastwest;labelBackgroundColor=none;" parent="3" vertex="1">
                    <mxGeometry y="310" width="140" height="20" as="geometry"/>
                </mxCell>
                <mxCell id="GPAsydkt1vAZOkk7YhbM-27" value="getAllPhotograph()" style="text;html=1;align=left;verticalAlign=middle;spacingLeft=4;spacingRight=4;overflow=hidden;rotatable=0;points=[[0,0.5],[1,0.5]];portConstraint=eastwest;labelBackgroundColor=none;" parent="3" vertex="1">
                    <mxGeometry y="330" width="140" height="24" as="geometry"/>
                </mxCell>
                <mxCell id="ksVcXcVUjheI1veKoCMT-44" value="&amp;lt;&amp;lt;Entity&amp;gt;&amp;gt;&lt;br&gt;Photo" style="swimlane;fontStyle=0;align=center;verticalAlign=top;childLayout=stackLayout;horizontal=1;startSize=55;horizontalStack=0;resizeParent=1;resizeParentMax=0;resizeLast=0;collapsible=0;marginBottom=0;html=1;labelBackgroundColor=none;glass=0;rounded=1;shadow=0;fillColor=#2A2A2A;" parent="1" vertex="1">
                    <mxGeometry x="20" y="390" width="140" height="230" as="geometry"/>
                </mxCell>
                <mxCell id="ksVcXcVUjheI1veKoCMT-45" value="properties" style="text;html=1;align=center;verticalAlign=middle;spacingLeft=4;spacingRight=4;overflow=hidden;rotatable=0;points=[[0,0.5],[1,0.5]];portConstraint=eastwest;labelBackgroundColor=none;" parent="ksVcXcVUjheI1veKoCMT-44" vertex="1">
                    <mxGeometry y="55" width="140" height="20" as="geometry"/>
                </mxCell>
                <mxCell id="ksVcXcVUjheI1veKoCMT-46" value="title" style="text;html=1;align=left;verticalAlign=middle;spacingLeft=4;spacingRight=4;overflow=hidden;rotatable=0;points=[[0,0.5],[1,0.5]];portConstraint=eastwest;labelBackgroundColor=none;" parent="ksVcXcVUjheI1veKoCMT-44" vertex="1">
                    <mxGeometry y="75" width="140" height="20" as="geometry"/>
                </mxCell>
                <mxCell id="ksVcXcVUjheI1veKoCMT-48" value="like" style="text;html=1;align=left;verticalAlign=middle;spacingLeft=4;spacingRight=4;overflow=hidden;rotatable=0;points=[[0,0.5],[1,0.5]];portConstraint=eastwest;labelBackgroundColor=none;" parent="ksVcXcVUjheI1veKoCMT-44" vertex="1">
                    <mxGeometry y="95" width="140" height="20" as="geometry"/>
                </mxCell>
                <mxCell id="ksVcXcVUjheI1veKoCMT-54" value="" style="line;strokeWidth=1;align=left;verticalAlign=middle;spacingTop=-1;spacingLeft=3;spacingRight=3;rotatable=0;labelPosition=right;points=[];portConstraint=eastwest;labelBackgroundColor=none;" parent="ksVcXcVUjheI1veKoCMT-44" vertex="1">
                    <mxGeometry y="115" width="140" height="8" as="geometry"/>
                </mxCell>
                <mxCell id="ksVcXcVUjheI1veKoCMT-55" value="methods" style="text;html=1;align=center;verticalAlign=middle;spacingLeft=4;spacingRight=4;overflow=hidden;rotatable=0;points=[[0,0.5],[1,0.5]];portConstraint=eastwest;labelBackgroundColor=none;" parent="ksVcXcVUjheI1veKoCMT-44" vertex="1">
                    <mxGeometry y="123" width="140" height="23" as="geometry"/>
                </mxCell>
                <mxCell id="ksVcXcVUjheI1veKoCMT-56" value="addLike()" style="text;html=1;align=left;verticalAlign=middle;spacingLeft=4;spacingRight=4;overflow=hidden;rotatable=0;points=[[0,0.5],[1,0.5]];portConstraint=eastwest;labelBackgroundColor=none;" parent="ksVcXcVUjheI1veKoCMT-44" vertex="1">
                    <mxGeometry y="146" width="140" height="24" as="geometry"/>
                </mxCell>
                <mxCell id="ksVcXcVUjheI1veKoCMT-57" value="removeLike()" style="text;html=1;align=left;verticalAlign=middle;spacingLeft=4;spacingRight=4;overflow=hidden;rotatable=0;points=[[0,0.5],[1,0.5]];portConstraint=eastwest;labelBackgroundColor=none;" parent="ksVcXcVUjheI1veKoCMT-44" vertex="1">
                    <mxGeometry y="170" width="140" height="20" as="geometry"/>
                </mxCell>
                <mxCell id="ksVcXcVUjheI1veKoCMT-58" value="sortBy()" style="text;html=1;align=left;verticalAlign=middle;spacingLeft=4;spacingRight=4;overflow=hidden;rotatable=0;points=[[0,0.5],[1,0.5]];portConstraint=eastwest;labelBackgroundColor=none;" parent="ksVcXcVUjheI1veKoCMT-44" vertex="1">
                    <mxGeometry y="190" width="140" height="20" as="geometry"/>
                </mxCell>
                <mxCell id="ksVcXcVUjheI1veKoCMT-60" value="displayPhoto()" style="text;html=1;align=left;verticalAlign=middle;spacingLeft=4;spacingRight=4;overflow=hidden;rotatable=0;points=[[0,0.5],[1,0.5]];portConstraint=eastwest;labelBackgroundColor=none;" parent="ksVcXcVUjheI1veKoCMT-44" vertex="1">
                    <mxGeometry y="210" width="140" height="20" as="geometry"/>
                </mxCell>
                <mxCell id="GPAsydkt1vAZOkk7YhbM-10" value="&amp;lt;&amp;lt;Controller&amp;gt;&amp;gt;&lt;br&gt;ContactForm" style="swimlane;fontStyle=0;align=center;verticalAlign=top;childLayout=stackLayout;horizontal=1;startSize=55;horizontalStack=0;resizeParent=1;resizeParentMax=0;resizeLast=0;collapsible=0;marginBottom=0;html=1;labelBackgroundColor=none;glass=0;rounded=1;shadow=0;fillColor=#2A2A2A;" parent="1" vertex="1">
                    <mxGeometry x="370" y="250" width="140" height="146" as="geometry"/>
                </mxCell>
                <mxCell id="GPAsydkt1vAZOkk7YhbM-11" value="properties" style="text;html=1;align=center;verticalAlign=middle;spacingLeft=4;spacingRight=4;overflow=hidden;rotatable=0;points=[[0,0.5],[1,0.5]];portConstraint=eastwest;labelBackgroundColor=none;" parent="GPAsydkt1vAZOkk7YhbM-10" vertex="1">
                    <mxGeometry y="55" width="140" height="20" as="geometry"/>
                </mxCell>
                <mxCell id="GPAsydkt1vAZOkk7YhbM-14" value="" style="line;strokeWidth=1;align=left;verticalAlign=middle;spacingTop=-1;spacingLeft=3;spacingRight=3;rotatable=0;labelPosition=right;points=[];portConstraint=eastwest;labelBackgroundColor=none;" parent="GPAsydkt1vAZOkk7YhbM-10" vertex="1">
                    <mxGeometry y="75" width="140" height="8" as="geometry"/>
                </mxCell>
                <mxCell id="GPAsydkt1vAZOkk7YhbM-15" value="methods" style="text;html=1;align=center;verticalAlign=middle;spacingLeft=4;spacingRight=4;overflow=hidden;rotatable=0;points=[[0,0.5],[1,0.5]];portConstraint=eastwest;labelBackgroundColor=none;" parent="GPAsydkt1vAZOkk7YhbM-10" vertex="1">
                    <mxGeometry y="83" width="140" height="23" as="geometry"/>
                </mxCell>
                <mxCell id="GPAsydkt1vAZOkk7YhbM-17" value="submitForm()" style="text;html=1;align=left;verticalAlign=middle;spacingLeft=4;spacingRight=4;overflow=hidden;rotatable=0;points=[[0,0.5],[1,0.5]];portConstraint=eastwest;labelBackgroundColor=none;" parent="GPAsydkt1vAZOkk7YhbM-10" vertex="1">
                    <mxGeometry y="106" width="140" height="20" as="geometry"/>
                </mxCell>
                <mxCell id="GPAsydkt1vAZOkk7YhbM-25" value="&lt;span style=&quot;text-align: center&quot;&gt;displayFormModal()&lt;/span&gt;" style="text;html=1;align=left;verticalAlign=middle;spacingLeft=4;spacingRight=4;overflow=hidden;rotatable=0;points=[[0,0.5],[1,0.5]];portConstraint=eastwest;labelBackgroundColor=none;" parent="GPAsydkt1vAZOkk7YhbM-10" vertex="1">
                    <mxGeometry y="126" width="140" height="20" as="geometry"/>
                </mxCell>
                <mxCell id="x3qjhd-bNZPaJMDijRIy-10" value="&amp;lt;&amp;lt;Controller&amp;gt;&amp;gt;&lt;br&gt;Lightbox" style="swimlane;fontStyle=0;align=center;verticalAlign=top;childLayout=stackLayout;horizontal=1;startSize=55;horizontalStack=0;resizeParent=1;resizeParentMax=0;resizeLast=0;collapsible=0;marginBottom=0;html=1;labelBackgroundColor=none;glass=0;rounded=1;shadow=0;fillColor=#2A2A2A;" parent="1" vertex="1">
                    <mxGeometry x="370" y="460" width="140" height="206" as="geometry"/>
                </mxCell>
                <mxCell id="x3qjhd-bNZPaJMDijRIy-11" value="properties" style="text;html=1;align=center;verticalAlign=middle;spacingLeft=4;spacingRight=4;overflow=hidden;rotatable=0;points=[[0,0.5],[1,0.5]];portConstraint=eastwest;labelBackgroundColor=none;" parent="x3qjhd-bNZPaJMDijRIy-10" vertex="1">
                    <mxGeometry y="55" width="140" height="20" as="geometry"/>
                </mxCell>
                <mxCell id="x3qjhd-bNZPaJMDijRIy-12" value="kkk" style="text;html=1;align=left;verticalAlign=middle;spacingLeft=4;spacingRight=4;overflow=hidden;rotatable=0;points=[[0,0.5],[1,0.5]];portConstraint=eastwest;labelBackgroundColor=none;" parent="x3qjhd-bNZPaJMDijRIy-10" vertex="1">
                    <mxGeometry y="75" width="140" height="20" as="geometry"/>
                </mxCell>
                <mxCell id="x3qjhd-bNZPaJMDijRIy-14" value="" style="line;strokeWidth=1;align=left;verticalAlign=middle;spacingTop=-1;spacingLeft=3;spacingRight=3;rotatable=0;labelPosition=right;points=[];portConstraint=eastwest;labelBackgroundColor=none;" parent="x3qjhd-bNZPaJMDijRIy-10" vertex="1">
                    <mxGeometry y="95" width="140" height="8" as="geometry"/>
                </mxCell>
                <mxCell id="x3qjhd-bNZPaJMDijRIy-15" value="methods" style="text;html=1;align=center;verticalAlign=middle;spacingLeft=4;spacingRight=4;overflow=hidden;rotatable=0;points=[[0,0.5],[1,0.5]];portConstraint=eastwest;labelBackgroundColor=none;" parent="x3qjhd-bNZPaJMDijRIy-10" vertex="1">
                    <mxGeometry y="103" width="140" height="23" as="geometry"/>
                </mxCell>
                <mxCell id="x3qjhd-bNZPaJMDijRIy-16" value="openLightBox()" style="text;html=1;align=left;verticalAlign=middle;spacingLeft=4;spacingRight=4;overflow=hidden;rotatable=0;points=[[0,0.5],[1,0.5]];portConstraint=eastwest;labelBackgroundColor=none;" parent="x3qjhd-bNZPaJMDijRIy-10" vertex="1">
                    <mxGeometry y="126" width="140" height="20" as="geometry"/>
                </mxCell>
                <mxCell id="x3qjhd-bNZPaJMDijRIy-17" value="&lt;span style=&quot;text-align: center&quot;&gt;closeLightbox()&lt;/span&gt;" style="text;html=1;align=left;verticalAlign=middle;spacingLeft=4;spacingRight=4;overflow=hidden;rotatable=0;points=[[0,0.5],[1,0.5]];portConstraint=eastwest;labelBackgroundColor=none;" parent="x3qjhd-bNZPaJMDijRIy-10" vertex="1">
                    <mxGeometry y="146" width="140" height="20" as="geometry"/>
                </mxCell>
                <mxCell id="x3qjhd-bNZPaJMDijRIy-18" value="&lt;span style=&quot;text-align: center&quot;&gt;nextPhoto()&lt;/span&gt;" style="text;html=1;align=left;verticalAlign=middle;spacingLeft=4;spacingRight=4;overflow=hidden;rotatable=0;points=[[0,0.5],[1,0.5]];portConstraint=eastwest;labelBackgroundColor=none;" parent="x3qjhd-bNZPaJMDijRIy-10" vertex="1">
                    <mxGeometry y="166" width="140" height="20" as="geometry"/>
                </mxCell>
                <mxCell id="x3qjhd-bNZPaJMDijRIy-19" value="&lt;span style=&quot;text-align: center&quot;&gt;previousPhoto()&lt;/span&gt;" style="text;html=1;align=left;verticalAlign=middle;spacingLeft=4;spacingRight=4;overflow=hidden;rotatable=0;points=[[0,0.5],[1,0.5]];portConstraint=eastwest;labelBackgroundColor=none;" parent="x3qjhd-bNZPaJMDijRIy-10" vertex="1">
                    <mxGeometry y="186" width="140" height="20" as="geometry"/>
                </mxCell>
                <mxCell id="x3qjhd-bNZPaJMDijRIy-20" value="&amp;lt;&amp;lt;Controller&amp;gt;&amp;gt;&lt;br&gt;Photograph" style="swimlane;fontStyle=0;align=center;verticalAlign=top;childLayout=stackLayout;horizontal=1;startSize=55;horizontalStack=0;resizeParent=1;resizeParentMax=0;resizeLast=0;collapsible=0;marginBottom=0;html=1;labelBackgroundColor=none;glass=0;rounded=1;shadow=0;fillColor=#2A2A2A;" parent="1" vertex="1">
                    <mxGeometry x="370" y="14" width="140" height="126" as="geometry"/>
                </mxCell>
                <mxCell id="x3qjhd-bNZPaJMDijRIy-21" value="properties" style="text;html=1;align=center;verticalAlign=middle;spacingLeft=4;spacingRight=4;overflow=hidden;rotatable=0;points=[[0,0.5],[1,0.5]];portConstraint=eastwest;labelBackgroundColor=none;" parent="x3qjhd-bNZPaJMDijRIy-20" vertex="1">
                    <mxGeometry y="55" width="140" height="20" as="geometry"/>
                </mxCell>
                <mxCell id="x3qjhd-bNZPaJMDijRIy-23" value="" style="line;strokeWidth=1;align=left;verticalAlign=middle;spacingTop=-1;spacingLeft=3;spacingRight=3;rotatable=0;labelPosition=right;points=[];portConstraint=eastwest;labelBackgroundColor=none;" parent="x3qjhd-bNZPaJMDijRIy-20" vertex="1">
                    <mxGeometry y="75" width="140" height="8" as="geometry"/>
                </mxCell>
                <mxCell id="x3qjhd-bNZPaJMDijRIy-24" value="methods" style="text;html=1;align=center;verticalAlign=middle;spacingLeft=4;spacingRight=4;overflow=hidden;rotatable=0;points=[[0,0.5],[1,0.5]];portConstraint=eastwest;labelBackgroundColor=none;" parent="x3qjhd-bNZPaJMDijRIy-20" vertex="1">
                    <mxGeometry y="83" width="140" height="23" as="geometry"/>
                </mxCell>
                <mxCell id="x3qjhd-bNZPaJMDijRIy-25" value="openLightBox()" style="text;html=1;align=left;verticalAlign=middle;spacingLeft=4;spacingRight=4;overflow=hidden;rotatable=0;points=[[0,0.5],[1,0.5]];portConstraint=eastwest;labelBackgroundColor=none;" parent="x3qjhd-bNZPaJMDijRIy-20" vertex="1">
                    <mxGeometry y="106" width="140" height="20" as="geometry"/>
                </mxCell>
                <mxCell id="x3qjhd-bNZPaJMDijRIy-29" value="&amp;lt;&amp;lt;View&amp;gt;&amp;gt;&lt;br&gt;Photograph" style="swimlane;fontStyle=0;align=center;verticalAlign=top;childLayout=stackLayout;horizontal=1;startSize=55;horizontalStack=0;resizeParent=1;resizeParentMax=0;resizeLast=0;collapsible=0;marginBottom=0;html=1;labelBackgroundColor=none;glass=0;rounded=1;shadow=0;fillColor=#2A2A2A;" parent="1" vertex="1">
                    <mxGeometry x="700" y="14" width="140" height="146" as="geometry"/>
                </mxCell>
                <mxCell id="x3qjhd-bNZPaJMDijRIy-30" value="properties" style="text;html=1;align=center;verticalAlign=middle;spacingLeft=4;spacingRight=4;overflow=hidden;rotatable=0;points=[[0,0.5],[1,0.5]];portConstraint=eastwest;labelBackgroundColor=none;" parent="x3qjhd-bNZPaJMDijRIy-29" vertex="1">
                    <mxGeometry y="55" width="140" height="20" as="geometry"/>
                </mxCell>
                <mxCell id="x3qjhd-bNZPaJMDijRIy-32" value="" style="line;strokeWidth=1;align=left;verticalAlign=middle;spacingTop=-1;spacingLeft=3;spacingRight=3;rotatable=0;labelPosition=right;points=[];portConstraint=eastwest;labelBackgroundColor=none;" parent="x3qjhd-bNZPaJMDijRIy-29" vertex="1">
                    <mxGeometry y="75" width="140" height="8" as="geometry"/>
                </mxCell>
                <mxCell id="x3qjhd-bNZPaJMDijRIy-33" value="methods" style="text;html=1;align=center;verticalAlign=middle;spacingLeft=4;spacingRight=4;overflow=hidden;rotatable=0;points=[[0,0.5],[1,0.5]];portConstraint=eastwest;labelBackgroundColor=none;" parent="x3qjhd-bNZPaJMDijRIy-29" vertex="1">
                    <mxGeometry y="83" width="140" height="23" as="geometry"/>
                </mxCell>
                <mxCell id="x3qjhd-bNZPaJMDijRIy-34" value="openLightBox()" style="text;html=1;align=left;verticalAlign=middle;spacingLeft=4;spacingRight=4;overflow=hidden;rotatable=0;points=[[0,0.5],[1,0.5]];portConstraint=eastwest;labelBackgroundColor=none;" parent="x3qjhd-bNZPaJMDijRIy-29" vertex="1">
                    <mxGeometry y="106" width="140" height="20" as="geometry"/>
                </mxCell>
                <mxCell id="x3qjhd-bNZPaJMDijRIy-35" value="&lt;span style=&quot;text-align: center&quot;&gt;closeLightbox()&lt;/span&gt;" style="text;html=1;align=left;verticalAlign=middle;spacingLeft=4;spacingRight=4;overflow=hidden;rotatable=0;points=[[0,0.5],[1,0.5]];portConstraint=eastwest;labelBackgroundColor=none;" parent="x3qjhd-bNZPaJMDijRIy-29" vertex="1">
                    <mxGeometry y="126" width="140" height="20" as="geometry"/>
                </mxCell>
            </root>
        </mxGraphModel>
    </diagram>
</mxfile>